<svg id="visual" viewBox="0 0 900 600" width="900" height="600" xmlns="http://www.w3.org/2000/svg" xmlns:xlink="http://www.w3.org/1999/xlink" version="1.1"><path d="M0 85L150 67L300 73L450 79L600 67L750 79L900 73L900 0L750 0L600 0L450 0L300 0L150 0L0 0Z" fill="#0066ff"></path><path d="M0 205L150 187L300 187L450 199L600 199L750 205L900 193L900 71L750 77L600 65L450 77L300 71L150 65L0 83Z" fill="#0080ff"></path><path d="M0 247L150 235L300 229L450 247L600 247L750 253L900 241L900 191L750 203L600 197L450 197L300 185L150 185L0 203Z" fill="#0096ff"></path><path d="M0 283L150 271L300 265L450 283L600 283L750 289L900 277L900 239L750 251L600 245L450 245L300 227L150 233L0 245Z" fill="#00aaff"></path><path d="M0 313L150 301L300 295L450 313L600 313L750 319L900 307L900 275L750 287L600 281L450 281L300 263L150 269L0 281Z" fill="#00bcff"></path><path d="M0 343L150 331L300 325L450 343L600 343L750 349L900 337L900 305L750 317L600 311L450 311L300 293L150 299L0 311Z" fill="#00ccff"></path><path d="M0 379L150 367L300 361L450 373L600 379L750 379L900 367L900 335L750 347L600 341L450 341L300 323L150 329L0 341Z" fill="#00dbf9"></path><path d="M0 421L150 409L300 403L450 415L600 421L750 421L900 409L900 365L750 377L600 377L450 371L300 359L150 365L0 377Z" fill="#00e7df"></path><path d="M0 547L150 541L300 541L450 541L600 541L750 547L900 547L900 407L750 419L600 419L450 413L300 401L150 407L0 419Z" fill="#00f1b5"></path><path d="M0 601L150 601L300 601L450 601L600 601L750 601L900 601L900 545L750 545L600 539L450 539L300 539L150 539L0 545Z" fill="#0ff780"></path></svg>